<?xml version="1.0" encoding="UTF-8"?>
<svg width="101px" height="101px" viewBox="0 0 101 101" version="1.1" xmlns="http://www.w3.org/2000/svg" xmlns:xlink="http://www.w3.org/1999/xlink">
    <title>BasicDetails_icon</title>
    <defs>
        <polygon id="path-1" points="0.0004 0 40.589 0 40.589 53.9998 0.0004 53.9998"></polygon>
        <polygon id="path-3" points="0 0 10.5989 0 10.5989 10.5825 0 10.5825"></polygon>
        <polygon id="path-5" points="0 54 40.589 54 40.589 0 0 0"></polygon>
    </defs>
    <g id="Page-1" stroke="none" stroke-width="1" fill="none" fill-rule="evenodd">
        <g id="5_InstaInsure_Steps" transform="translate(-105.000000, -116.000000)">
            <g id="BasicDetails_icon" transform="translate(105.000000, 116.000000)">
                <rect id="Rectangle" fill="#FFFFFF" x="0" y="0" width="101" height="101" rx="50.5"></rect>
                <g id="Group-24" transform="translate(30.000000, 24.000000)">
                    <polygon id="Fill-1" fill="#FFFFFF" points="9.7767 0 -0.0003 9.761 -0.0003 49.987 1.6437 52.357 4.0137 52.357 37.7577 52.808 39.4267 51.139 40.5887 4.012 37.7577 0.828 9.8077 0"></polygon>
                    <g id="Group-23">
                        <path d="M37.7574,52.8081 L37.7574,52.8081 C36.8354,52.8081 36.0884,52.0611 36.0884,51.1391 L36.0884,2.4961 C36.0884,1.5751 36.8354,0.8281 37.7574,0.8281 C38.6794,0.8281 39.4264,1.5751 39.4264,2.4961 L39.4264,51.1391 C39.4264,52.0611 38.6794,52.8081 37.7574,52.8081" id="Fill-2" fill="#69D2FF"></path>
                        <path d="M33.1617,16.4419 L25.3397,16.4419 C24.8867,16.4419 24.5177,16.0749 24.5177,15.6209 C24.5177,15.1669 24.8867,14.7989 25.3397,14.7989 L33.1617,14.7989 C33.6157,14.7989 33.9837,15.1669 33.9837,15.6209 C33.9837,16.0749 33.6157,16.4419 33.1617,16.4419" id="Fill-4" fill="#0063C1"></path>
                        <g id="Group-8">
                            <mask id="mask-2" fill="white">
                                <use xlink:href="#path-1"></use>
                            </mask>
                            <g id="Clip-7"></g>
                            <path d="M1.6434,10.1008 L1.6434,49.9868 C1.6434,51.2938 2.7064,52.3578 4.0134,52.3578 L36.5754,52.3578 C37.8824,52.3578 38.9464,51.2938 38.9464,49.9868 L38.9464,4.0118 C38.9464,2.7068 37.8824,1.6418 36.5754,1.6418 L10.1014,1.6418 L1.6434,10.1008 Z M36.5754,53.9998 L4.0134,53.9998 C1.8004,53.9998 0.0004,52.1998 0.0004,49.9868 L0.0004,9.9458 C0.0004,9.6078 0.1314,9.2898 0.3704,9.0508 L9.0504,0.3708 C9.2874,0.1328 9.6064,-0.0002 9.9464,-0.0002 L36.5754,-0.0002 C38.7894,-0.0002 40.5894,1.8008 40.5894,4.0118 L40.5894,49.9868 C40.5894,52.1998 38.7894,53.9998 36.5754,53.9998 L36.5754,53.9998 Z" id="Fill-6" fill="#0063C1" mask="url(#mask-2)"></path>
                        </g>
                        <g id="Group-11">
                            <mask id="mask-4" fill="white">
                                <use xlink:href="#path-3"></use>
                            </mask>
                            <g id="Clip-10"></g>
                            <path d="M7.7969,10.5825 L0.8219,10.5825 C0.3679,10.5825 -0.0001,10.2155 -0.0001,9.7615 C-0.0001,9.3075 0.3679,8.9395 0.8219,8.9395 L7.7969,8.9395 C8.4359,8.9395 8.9559,8.4195 8.9559,7.7805 L8.9559,0.8205 C8.9559,0.3665 9.3239,-0.0005 9.7769,-0.0005 C10.2309,-0.0005 10.5989,0.3665 10.5989,0.8205 L10.5989,7.7805 C10.5989,9.3255 9.3419,10.5825 7.7969,10.5825" id="Fill-9" fill="#0063C1" mask="url(#mask-4)"></path>
                        </g>
                        <path d="M12.5835,18.7769 C11.9605,18.7769 11.4535,19.3819 11.4535,20.1259 C11.4535,20.8979 11.9915,21.6019 12.5835,21.6019 C13.1755,21.6019 13.7135,20.8979 13.7135,20.1259 C13.7135,19.3819 13.2075,18.7769 12.5835,18.7769 M12.5835,23.2449 C11.0805,23.2449 9.8105,21.8169 9.8105,20.1259 C9.8105,18.4759 11.0545,17.1339 12.5835,17.1339 C14.1125,17.1339 15.3575,18.4759 15.3575,20.1259 C15.3575,21.8169 14.0875,23.2449 12.5835,23.2449" id="Fill-12" fill="#ED1C24"></path>
                        <mask id="mask-6" fill="white">
                            <use xlink:href="#path-5"></use>
                        </mask>
                        <g id="Clip-15"></g>
                        <path d="M6.993,28.8 L18.652,28.8 L18.652,16.372 L6.993,16.372 L6.993,28.8 Z M19.474,30.443 L6.172,30.443 C5.718,30.443 5.35,30.076 5.35,29.622 L5.35,15.551 C5.35,15.097 5.718,14.73 6.172,14.73 L19.474,14.73 C19.927,14.73 20.295,15.097 20.295,15.551 L20.295,29.622 C20.295,30.076 19.927,30.443 19.474,30.443 L19.474,30.443 Z" id="Fill-14" fill="#ED1C24" mask="url(#mask-6)"></path>
                        <path d="M16.4898,27.4634 C16.0928,27.4634 15.7428,27.1744 15.6788,26.7694 C15.4368,25.2354 14.1358,24.1224 12.5838,24.1224 C11.0318,24.1224 9.7308,25.2354 9.4898,26.7694 C9.4188,27.2164 8.9998,27.5244 8.5498,27.4524 C8.1008,27.3814 7.7958,26.9604 7.8658,26.5124 C8.2348,24.1764 10.2188,22.4804 12.5838,22.4804 C14.9488,22.4804 16.9338,24.1764 17.3018,26.5124 C17.3728,26.9604 17.0668,27.3814 16.6178,27.4524 C16.5748,27.4594 16.5318,27.4634 16.4898,27.4634" id="Fill-16" fill="#ED1C24" mask="url(#mask-6)"></path>
                        <path d="M33.1617,21.1265 L25.3397,21.1265 C24.8867,21.1265 24.5177,20.7595 24.5177,20.3055 C24.5177,19.8515 24.8867,19.4835 25.3397,19.4835 L33.1617,19.4835 C33.6157,19.4835 33.9837,19.8515 33.9837,20.3055 C33.9837,20.7595 33.6157,21.1265 33.1617,21.1265" id="Fill-17" fill="#0063C1" mask="url(#mask-6)"></path>
                        <path d="M33.1617,25.811 L25.3397,25.811 C24.8867,25.811 24.5177,25.444 24.5177,24.99 C24.5177,24.536 24.8867,24.168 25.3397,24.168 L33.1617,24.168 C33.6157,24.168 33.9837,24.536 33.9837,24.99 C33.9837,25.444 33.6157,25.811 33.1617,25.811" id="Fill-18" fill="#0063C1" mask="url(#mask-6)"></path>
                        <path d="M33.1617,30.4956 L25.3397,30.4956 C24.8867,30.4956 24.5177,30.1286 24.5177,29.6746 C24.5177,29.2206 24.8867,28.8526 25.3397,28.8526 L33.1617,28.8526 C33.6157,28.8526 33.9837,29.2206 33.9837,29.6746 C33.9837,30.1286 33.6157,30.4956 33.1617,30.4956" id="Fill-19" fill="#0063C1" mask="url(#mask-6)"></path>
                        <path d="M33.1617,35.3179 L6.0497,35.3179 C5.5967,35.3179 5.2277,34.9509 5.2277,34.4969 C5.2277,34.0429 5.5967,33.6759 6.0497,33.6759 L33.1617,33.6759 C33.6157,33.6759 33.9837,34.0429 33.9837,34.4969 C33.9837,34.9509 33.6157,35.3179 33.1617,35.3179" id="Fill-20" fill="#0063C1" mask="url(#mask-6)"></path>
                        <path d="M33.1617,40.0024 L6.0497,40.0024 C5.5967,40.0024 5.2277,39.6354 5.2277,39.1814 C5.2277,38.7284 5.5967,38.3604 6.0497,38.3604 L33.1617,38.3604 C33.6157,38.3604 33.9837,38.7284 33.9837,39.1814 C33.9837,39.6354 33.6157,40.0024 33.1617,40.0024" id="Fill-21" fill="#0063C1" mask="url(#mask-6)"></path>
                        <path d="M22.1387,44.687 L6.0497,44.687 C5.5967,44.687 5.2277,44.32 5.2277,43.866 C5.2277,43.413 5.5967,43.045 6.0497,43.045 L22.1387,43.045 C22.5927,43.045 22.9607,43.413 22.9607,43.866 C22.9607,44.32 22.5927,44.687 22.1387,44.687" id="Fill-22" fill="#0063C1" mask="url(#mask-6)"></path>
                    </g>
                </g>
            </g>
        </g>
    </g>
</svg>
